:SAMPLES-PER-SECOND 30
:FULLY-SPECIFIED
:DEGREES
406
root  -44.3807 33.3112 -20.853 159.509 -76.7684 -151.181
RightUpLeg  -30.0265 -6.62937 8.30947
RightLeg  25.6958 -8.44474 -3.40131
RightFoot  5.67231 0.0701132 -0.829929
RightToes  -14.226 -0.051663 -0.128856
Spine  -1.25643 0.203547 4.29361
Spine1  -2.54082 0.385111 8.8989
HEad  -33.8666 -6.67872 2.18521
LeftShoulder1  -1.94126e-019 -3.10601e-018 -2.51263e-017
LeftArm  -23.4808 30.4153 -81.8001
LeftForeArm  34.97 -21.3115 -3.89001
LeftHand  -0.4174 -1.10867 7.59978
RightShoulder  -4.96962e-017 0 -2.36833e-017
RightArm  -40.3733 -18.2723 66.0647
RightForeArm  61.0428 9.87746 1.53104
RightHand  -0.227239 -3.22115 -11.5958
LeftUpLeg  -10.057 5.82322 5.66859
LeftLeg  46.9594 3.12514 2.9304
LeftFoot  -4.28628 -0.0152545 -0.246113
LeftToes  -52.73 2.03064e-006 1.83538e-008
407
root  -45.2975 33.394 -21.1468 152.518 -79.3614 -145.31
RightUpLeg  -27.8205 -10.115 8.11433
RightLeg  26.8391 -8.02587 -3.42202
RightFoot  3.00038 0.0249731 -0.37516
RightToes  -13.161 -0.0467024 -0.119692
Spine  -0.860134 -0.0448371 4.319
Spine1  -1.77401 -0.14453 8.93218
HEad  -35.007 -7.99996 2.76002
LeftShoulder1  -1.94126e-019 -3.10601e-018 -2.51263e-017
LeftArm  -21.1232 29.0231 -82.2066
LeftForeArm  33.7636 -23.1208 -4.19739
LeftHand  -0.414866 -0.505809 8.27377
RightShoulder  -4.96962e-017 0 -2.36833e-017
RightArm  -40.6436 -18.6861 66.66
RightForeArm  59.2898 10.2496 1.54167
RightHand  -0.209165 -3.27455 -10.8653
LeftUpLeg  -15.108 5.90205 7.11406
LeftLeg  58.1445 0.661772 0.914319
LeftFoot  5.43509 -0.000709169 0.176453
LeftToes  -51.8048 2.03064e-006 1.83538e-008
408
root  -46.0866 33.471 -21.3452 145.929 -81.5016 -139.433
RightUpLeg  -26.3863 -12.253 7.38966
RightLeg  28.3493 -8.14239 -3.72737
RightFoot  0.909633 0.00471996 -0.0415616
RightToes  -12.9224 -0.0446914 -0.117626
Spine  -0.464293 -0.0305772 4.09738
Spine1  -0.980062 -0.122632 8.48339
HEad  -36.4863 -9.59536 3.66495
LeftShoulder1  -1.94126e-019 -3.10601e-018 -2.51263e-017
LeftArm  -17.4108 26.8048 -82.0318
LeftForeArm  32.9184 -25.125 -4.49269
LeftHand  -0.409716 -0.570069 8.08942
RightShoulder  -4.96962e-017 0 -2.36833e-017
RightArm  -38.7301 -18.8636 67.5105
RightForeArm  57.8976 10.8658 1.54022
RightHand  -0.23024 -2.98717 -10.6328
LeftUpLeg  -20.3202 6.58955 7.68074
LeftLeg  66.3345 0.850771 1.62798
LeftFoot  8.19156 -0.0123893 0.334532
LeftToes  -38.726 2.03064e-006 1.83538e-008
409
root  -46.8656 33.6144 -21.4312 151.77 -82.846 -145.935
RightUpLeg  -24.8702 -13.217 5.52313
RightLeg  29.2208 -7.82342 -3.72794
RightFoot  -0.557346 -0.00217537 0.213218
RightToes  -13.0875 -0.043366 -0.117016
Spine  -0.0328833 0.306055 3.4469
Spine1  -0.096572 0.576353 7.21713
HEad  -37.3779 -10.4695 4.13754
LeftShoulder1  -1.94126e-019 -3.10601e-018 -2.51263e-017
LeftArm  -14.4739 24.5398 -81.6389
LeftForeArm  32.5022 -26.443 -4.52482
LeftHand  -0.419822 -0.780095 8.02228
RightShoulder  -4.96962e-017 0 -2.36833e-017
RightArm  -36.4136 -18.3323 68.6283
RightForeArm  58.3035 11.1961 1.52777
RightHand  -0.277401 -2.50538 -10.8353
LeftUpLeg  -24.134 8.49618 6.46475
LeftLeg  69.8046 2.05391 4.60965
LeftFoot  3.58325 -0.00755522 0.403063
LeftToes  -32.1089 2.03064e-006 1.83538e-008
410
root  -47.5742 33.7747 -21.5245 156.899 -83.2517 -151.306
RightUpLeg  -23.1244 -13.1547 4.4904
RightLeg  28.586 -8.08215 -3.74055
RightFoot  -1.25864 -0.0030374 0.350818
RightToes  -12.9925 -0.0427738 -0.116858
Spine  0.292015 0.67315 3.01305
Spine1  0.578547 1.36995 6.36461
HEad  -37.5945 -10.5783 4.21656
LeftShoulder1  -1.94126e-019 -3.10601e-018 -2.51263e-017
LeftArm  -12.5978 22.8655 -81.4964
LeftForeArm  31.8622 -28.6585 -4.67073
LeftHand  -0.441979 -0.989154 8.18051
RightShoulder  -4.96962e-017 0 -2.36833e-017
RightArm  -33.9754 -17.3116 69.6807
RightForeArm  58.8907 11.5612 1.50715
RightHand  -0.281455 -2.489 -10.9404
LeftUpLeg  -27.5667 10.6108 5.66416
LeftLeg  69.5198 3.44287 7.60561
LeftFoot  1.86822 -0.00362572 0.383917
LeftToes  -28.7083 2.03064e-006 1.83538e-008
411
root  -48.2426 33.9371 -21.5673 161.704 -83.3865 -156.333
RightUpLeg  -21.1161 -12.3716 3.45875
RightLeg  27.4738 -8.46411 -3.71771
RightFoot  -1.82361 -0.0023179 0.476065
RightToes  -12.5095 -0.0429631 -0.117227
Spine  0.610714 0.965125 2.67872
Spine1  1.23518 2.02741 5.70189
HEad  -37.2939 -10.4679 3.85849
LeftShoulder1  -1.94126e-019 -3.10601e-018 -2.51263e-017
LeftArm  -11.0954 21.3509 -81.6627
LeftForeArm  30.8309 -30.6684 -4.97121
LeftHand  -0.508394 -0.663716 9.86796
RightShoulder  -4.96962e-017 0 -2.36833e-017
RightArm  -30.6691 -15.953 70.4265
RightForeArm  57.8324 12.1618 1.46452
RightHand  -0.280297 -2.41686 -10.6366
LeftUpLeg  -29.9922 11.9594 4.84206
LeftLeg  65.5586 4.75596 8.8022
LeftFoot  1.83017 -0.00797522 0.459846
LeftToes  -29.0863 2.03064e-006 1.83538e-008
412
root  -48.8836 34.0781 -21.5368 168.371 -83.2879 -162.97
RightUpLeg  -19.7999 -12.8029 2.53424
RightLeg  26.6047 -8.27312 -3.48632
RightFoot  -2.04959 -0.00173338 0.522911
RightToes  -13.1638 -0.0439816 -0.118198
Spine  0.890486 1.23622 2.28495
Spine1  1.80524 2.64427 4.92056
HEad  -37.0626 -10.3067 3.75659
LeftShoulder1  -1.94126e-019 -3.10601e-018 -2.51263e-017
LeftArm  -9.57921 19.7908 -81.8129
LeftForeArm  30.2933 -32.41 -5.41015
LeftHand  -0.582213 -0.5426 11.5031
RightShoulder  -4.96962e-017 0 -2.36833e-017
RightArm  -26.8954 -14.3998 71.0567
RightForeArm  55.8962 13.1048 1.37636
RightHand  -0.279814 -2.30382 -10.2407
LeftUpLeg  -31.349 12.3297 3.85479
LeftLeg  58.0661 5.75078 7.95094
LeftFoot  1.65814 -0.00745652 0.445237
LeftToes  -29.9014 2.03064e-006 1.83538e-008
